PathFileType	4	(X/Y/Z)	C:\Users\adpatrick\OneDrive - nih.no\Desktop\WebApp1080sync\WebAppv0.1\fp22_m505_left 2_Sports2D\fp22_m505_left 2_Sports2D_px_person00.trc
DataRate	CameraRate	NumFrames	NumMarkers	Units	OrigDataRate	OrigDataStartFrame	OrigNumFrames
60	60	12	22	m	60	434	869
Frame#	Time	Hip			RHip			RKnee			RAnkle			RBigToe			RSmallToe			RHeel			LHip			LKnee			LAnkle			LBigToe			LSmallToe			LHeel			Neck			Head			Nose			RShoulder			RElbow			RWrist			LShoulder			LElbow			LWrist		
		X1	Y1	Z1	X2	Y2	Z2	X3	Y3	Z3	X4	Y4	Z4	X5	Y5	Z5	X6	Y6	Z6	X7	Y7	Z7	X8	Y8	Z8	X9	Y9	Z9	X10	Y10	Z10	X11	Y11	Z11	X12	Y12	Z12	X13	Y13	Z13	X14	Y14	Z14	X15	Y15	Z15	X16	Y16	Z16	X17	Y17	Z17	X18	Y18	Z18	X19	Y19	Z19	X20	Y20	Z20	X21	Y21	Z21	X22	Y22	Z22
434	7.233333333333333	170.50208031033569	546.9782722412655	0.0	140.80702332929852	544.1843691936654	0.0	118.42998099690166	657.1741406174668	0.0	87.93496421747147	767.3435685060043	0.0	115.87618430124839	793.7063191468411	0.0	96.57093674651844	796.7838760294558	0.0	76.39559983356502	784.308971214552	0.0	193.75810102588798	544.8637356836807	0.0	234.06414834595748	645.4917045046811	0.0	231.97536485674158	758.1973657533355	0.0	271.391609659003	783.980969849952	0.0	273.5219003115717	778.1702208577537	0.0	222.402699345121	775.637213389756	0.0	214.4787820021405	403.91622687534397	0.0	250.6725648960647	338.0474662561717	0.0	254.6943146731187	381.5996329116931	0.0	157.12840752279644	422.2593690346565	0.0	128.3570343085117	501.6439565391529	0.0	145.55379619846116	570.501855910996	0.0	245.90949571974568	435.33131533934915	0.0	247.44457335436186	508.4755357008776	0.0	263.7711751536145	572.4589005608992	0.0
435	7.25	170.66724402662908	547.1080836458844	0.0	140.87520588502466	544.1647336897214	0.0	118.45909344102742	657.0061259062893	0.0	87.9020427992478	767.2513301424642	0.0	115.88978595761328	793.598159350797	0.0	96.65744485355833	796.7687084664043	0.0	76.44704302908416	784.2848855864851	0.0	193.89513830790654	545.0737094068656	0.0	234.13941876539192	645.5368326865909	0.0	232.0359179365403	758.0737430994858	0.0	271.3632752022815	783.6907913638449	0.0	273.67008572542477	777.9894520103504	0.0	222.4547886526044	775.5518317353049	0.0	214.74243160534076	404.1625741546188	0.0	250.90430098421956	338.2301647021688	0.0	255.0789539368877	381.6879024485513	0.0	157.40905802445528	422.3355840838634	0.0	128.41224992830027	501.7129361262933	0.0	145.54055837422544	570.5842167552671	0.0	246.31819803799524	435.54822292242216	0.0	247.76404572426037	508.64544640533	0.0	263.8887089838514	572.6717739721659	0.0
436	7.266666666666667	170.8629105093765	547.0425788551713	0.0	141.02545458072075	544.0048510119534	0.0	118.44755460396306	656.8156828147974	0.0	87.81055387020602	767.1191910207888	0.0	115.84380897596472	793.4909336730146	0.0	96.699201411831	796.7342348963082	0.0	76.42768166912377	784.2699098004775	0.0	194.0342956816286	545.1125384329364	0.0	234.19313445322257	645.4330568245514	0.0	232.09016837623497	758.0025372742203	0.0	271.2828438562894	783.4231193937322	0.0	273.7456505037635	777.8121455085885	0.0	222.50670850369414	775.4963774053502	0.0	214.98851468696458	404.48007537534625	0.0	251.19205927947922	338.3871315178348	0.0	255.49827845983103	381.8113352696875	0.0	157.75836055340702	422.3644265419829	0.0	128.44490208642975	501.73541864382713	0.0	145.51633745288498	570.6289315295555	0.0	246.7381522331324	435.8359888353824	0.0	248.13911296921316	508.7665880008476	0.0	264.0236082465955	572.8933307142837	0.0
437	7.283333333333333	171.06413240533078	546.799162170867	0.0	141.22692351350088	543.677165591083	0.0	118.39980550446552	656.6749535204583	0.0	87.66951503746311	766.971324591524	0.0	115.7723909607348	793.398096052101	0.0	96.70768759783428	796.7130518543553	0.0	76.36200183416521	784.2852304307971	0.0	194.1400493810084	544.8933529034762	0.0	234.2247641547651	645.1373354006457	0.0	232.1162129644762	758.0128510223915	0.0	271.1751854957271	783.3152565208756	0.0	273.72328172849984	777.7116738235458	0.0	222.5370110920013	775.4901173219523	0.0	215.2013013600574	404.8732309683522	0.0	251.59802848061636	338.60278390585836	0.0	255.90164325147526	382.0928231931946	0.0	158.146069391963	422.36165442349636	0.0	128.44054849783058	501.7198847162809	0.0	145.4490837483612	570.6454734017469	0.0	247.15656232902035	436.17681344050203	0.0	248.5290147581425	508.8338616561023	0.0	264.2379865278104	573.1039570959068	0.0
438	7.3	171.24801110714967	546.5150984679841	0.0	141.43453274763147	543.3451533861612	0.0	118.32300714060172	656.6415425052111	0.0	87.52769229598081	766.8165714413158	0.0	115.68175347556172	793.331067354938	0.0	96.67325613181058	796.7297690886088	0.0	76.30431049967643	784.3336303913122	0.0	194.207646357433	544.5696603149108	0.0	234.23590936354512	644.7480414999433	0.0	232.1206590891903	758.0456062254026	0.0	271.1177550646031	783.3261020189774	0.0	273.69102955938683	777.7095057934778	0.0	222.53947284080098	775.5404897573482	0.0	215.42030722048705	405.2895475511862	0.0	252.15513586533518	338.87081927386447	0.0	256.2646934100854	382.5541208228933	0.0	158.55218311666528	422.34173552984015	0.0	128.38938979047	501.6933515414515	0.0	145.32689245529	570.6706526673249	0.0	247.6023825049477	436.55050574514246	0.0	248.93836400380795	508.88278990125866	0.0	264.5184354796673	573.3018056309352	0.0
439	7.316666666666666	171.4113708970353	546.3554668630209	0.0	141.61163362276142	543.1913046590163	0.0	118.25448633897989	656.6994391780917	0.0	87.43982451946152	766.6702989736066	0.0	115.56988142995387	793.2942640684394	0.0	96.60962095520264	796.7479475481576	0.0	76.30468433117032	784.3881763801301	0.0	194.28468002862746	544.3587834349873	0.0	234.24942789336325	644.451083512791	0.0	232.09822483162003	758.0423953168995	0.0	271.12395282766045	783.3649881060545	0.0	273.7143855577967	777.7755477161624	0.0	222.52596178963992	775.6126298321122	0.0	215.6980275133308	405.674152704288	0.0	252.84280374181054	339.17662309712375	0.0	256.59670881299945	383.13329930800535	0.0	158.951310556528	422.3219578889072	0.0	128.29574193585773	501.67692891304546	0.0	145.15849974645982	570.7353291718546	0.0	248.1103517266894	436.9100738827315	0.0	249.3866678590145	508.9412786301989	0.0	264.8089503484173	573.4832389359443	0.0
440	7.333333333333333	171.5691196583284	546.3794831503674	0.0	141.7280175387896	543.1996948401818	0.0	118.26286118656357	656.7622747181555	0.0	87.43292422369389	766.5701576052398	0.0	115.45444763779761	793.2887417608298	0.0	96.5690953128255	796.7047554023139	0.0	76.37940917978463	784.4102638042083	0.0	194.41728005558838	544.3013238092104	0.0	234.29662241240217	644.35261183878	0.0	232.0252600158646	758.012804626242	0.0	271.0966954978038	783.4674555362691	0.0	273.73019067672806	777.8822963567491	0.0	222.5039698177527	775.62964316513	0.0	216.06124038127146	406.0087789179421	0.0	253.62384865641909	339.5874707426136	0.0	256.9250742383211	383.76920681271264	0.0	159.3261955496541	422.3236836661122	0.0	128.17755382877866	501.684330291574	0.0	144.95709010924404	570.8503080523939	0.0	248.67182295658907	437.2047430374817	0.0	249.8646115942364	509.01886464041	0.0	265.0974638013845	573.6454661726707	0.0
441	7.35	171.72528741876906	546.522524865337	0.0	141.76676995974455	543.2369188599287	0.0	118.37247749021712	656.764002752966	0.0	87.50315647820418	766.54327556342	0.0	115.35537447215108	793.3205324585695	0.0	96.57765445949096	796.5974005158963	0.0	76.49778658193569	784.3840583369312	0.0	194.60906602588938	544.2998039565152	0.0	234.39474845367675	644.4006914524064	0.0	231.90882224641928	757.9868483536502	0.0	270.97926561794657	783.6808492188203	0.0	273.6635648326417	778.0142306246482	0.0	222.48068448996926	775.547479553467	0.0	216.53421047267344	406.29144452556005	0.0	254.48275445584915	340.1243518916682	0.0	257.30188270358695	384.39074128009474	0.0	159.69773166159064	422.35581471150556	0.0	128.0581337855548	501.71757503755055	0.0	144.7465935174858	571.0212245965481	0.0	249.2515347737271	437.4426692774366	0.0	250.34722058364736	509.14520862094247	0.0	265.4072164170708	573.801055622566	0.0
442	7.366666666666666	171.8657561140997	546.6917307836549	0.0	141.74371588808359	543.2474625550171	0.0	118.51485945258385	656.7129612547973	0.0	87.62035898007476	766.5804542068912	0.0	115.28139606963012	793.3854879898585	0.0	96.59301722643114	796.4815901230783	0.0	76.60390557414873	784.3161569875757	0.0	194.83767287102992	544.2921672786604	0.0	234.54441900266173	644.4930826487375	0.0	231.80365223280876	757.9633943928073	0.0	270.84576452753913	783.9148745310517	0.0	273.5473827668278	778.1422452606686	0.0	222.48688488778438	775.4083422636031	0.0	217.14553216939643	406.5308501079576	0.0	255.4024906891593	340.6679630903111	0.0	257.7990748374789	384.90684322377064	0.0	160.10622172151614	422.41388166144185	0.0	127.97250752176453	501.7612114906111	0.0	144.56210220625394	571.2498359147038	0.0	249.84431385618691	437.6775897331597	0.0	250.81985719858676	509.37763987968384	0.0	265.73414357265654	573.9746395390615	0.0
443	7.383333333333333	171.98913224049844	546.8106914429939	0.0	141.71352850299863	543.2213220952342	0.0	118.60401393270264	656.6418024900632	0.0	87.73326885047825	766.6540257431734	0.0	115.24520494048225	793.4589999598488	0.0	96.57503418730894	796.3986651778316	0.0	76.66024560757856	784.2142870644676	0.0	195.06842067341424	544.2576208464551	0.0	234.72756758391753	644.5821296708062	0.0	231.76808622951344	757.9372406873373	0.0	270.79261288787757	784.0476109568019	0.0	273.4510733228144	778.2170637914046	0.0	222.56145270162153	775.2886782587028	0.0	217.87751732297545	406.76584229820713	0.0	256.3304533216899	341.13307924892234	0.0	258.43931423580204	385.29406979652373	0.0	160.56675288485866	422.5107575921304	0.0	127.9686949227848	501.7995317411277	0.0	144.41587876784922	571.5230364957597	0.0	250.4793151385543	437.933337156622	0.0	251.2675998243045	509.72413783265506	0.0	266.05094588768236	574.1892512639388	0.0
444	7.3999999999999995	172.11257933906478	546.7939644310165	0.0	141.73734934088338	543.085225721733	0.0	118.63044439812694	656.5520755339135	0.0	87.78887933367612	766.7377039098351	0.0	115.26786762817194	793.5153785650873	0.0	96.55080389861719	796.3509772407975	0.0	76.66061461365466	784.0988343422038	0.0	195.26129338939992	544.1418518428666	0.0	234.90688083138738	644.6441445025725	0.0	231.82770841050151	757.9297520311153	0.0	270.85105922247607	784.0730408506527	0.0	273.40178860914295	778.1967980263058	0.0	222.70284897556738	775.2254737423879	0.0	218.65201522109209	407.0465035633139	0.0	257.2058384950226	341.59590938606397	0.0	259.1602026887439	385.6274990974532	0.0	161.06682797542382	422.67422582261145	0.0	128.0840901074187	501.83971716162586	0.0	144.2894984439695	571.8147522707453	0.0	251.1682454925664	438.19862673834825	0.0	251.6766839332742	510.1144781640822	0.0	266.3526897292175	574.4687429965278	0.0
445	7.416666666666667	172.2291772002732	546.5681612575866	0.0	141.82658012635247	542.7787888743399	0.0	118.63378928436377	656.4160735275385	0.0	87.76235955052876	766.8071750274546	0.0	115.3541153621991	793.5491799011703	0.0	96.5516106977112	796.3325665885624	0.0	76.61728306337804	784.0169309376026	0.0	195.39651742855733	543.9017540067164	0.0	235.05201780797958	644.6407675243216	0.0	231.97013999660024	757.9536647706936	0.0	271.02258082718527	784.0448897070731	0.0	273.4282591068957	778.0811548962484	0.0	222.86164493557288	775.2142943781289	0.0	219.4009289355351	407.382476699797	0.0	258.0330910953089	342.14269127658787	0.0	259.90737797907354	385.96491060381976	0.0	161.589892811355	422.89377351414186	0.0	128.31576850609324	501.8995887840417	0.0	144.1683526014069	572.0949600373391	0.0	251.88190494061539	438.49195892938	0.0	252.0778250271505	510.49734667540105	0.0	266.6621325351431	574.8532170723433	0.0
